<mxfile host="app.diagrams.net" modified="2021-04-25T21:20:24.849Z" agent="5.0 (Windows NT 10.0; Win64; x64) AppleWebKit/537.36 (KHTML, like Gecko) Chrome/90.0.4430.85 Safari/537.36" etag="RN-D7YNtm2D-hXVeMcUw" version="14.5.4" type="github">
  <diagram id="ybFsiTL_VkAgqfR46oU4" name="Page-1">
    <mxGraphModel dx="868" dy="450" grid="1" gridSize="13" guides="1" tooltips="1" connect="1" arrows="1" fold="1" page="1" pageScale="1" pageWidth="583" pageHeight="827" background="#ffffff" math="0" shadow="1">
      <root>
        <mxCell id="0" />
        <mxCell id="1" parent="0" />
        <mxCell id="ORuBii73bYDcg85vZSF9-6" style="edgeStyle=orthogonalEdgeStyle;rounded=0;orthogonalLoop=1;jettySize=auto;html=1;fontColor=#704DFF;" edge="1" parent="1" source="ORuBii73bYDcg85vZSF9-4">
          <mxGeometry relative="1" as="geometry">
            <mxPoint x="300" y="350" as="targetPoint" />
          </mxGeometry>
        </mxCell>
        <mxCell id="ORuBii73bYDcg85vZSF9-9" style="edgeStyle=elbowEdgeStyle;shape=flexArrow;rounded=0;orthogonalLoop=1;jettySize=auto;html=1;labelBackgroundColor=#3B3BFF;fontColor=#4A6EFF;" edge="1" parent="1" source="ORuBii73bYDcg85vZSF9-4">
          <mxGeometry relative="1" as="geometry">
            <mxPoint x="500" y="350" as="targetPoint" />
          </mxGeometry>
        </mxCell>
        <mxCell id="ORuBii73bYDcg85vZSF9-4" value="restaurante&amp;nbsp;" style="rounded=0;whiteSpace=wrap;html=1;fontColor=#704DFF;" vertex="1" parent="1">
          <mxGeometry x="330" y="260" width="120" height="60" as="geometry" />
        </mxCell>
        <mxCell id="ORuBii73bYDcg85vZSF9-8" value="operador de caixa" style="ellipse;whiteSpace=wrap;html=1;fontColor=#704DFF;" vertex="1" parent="1">
          <mxGeometry x="200" y="340" width="120" height="80" as="geometry" />
        </mxCell>
        <mxCell id="ORuBii73bYDcg85vZSF9-12" value="coxinha" style="ellipse;whiteSpace=wrap;html=1;aspect=fixed;fontColor=#4A6EFF;" vertex="1" parent="1">
          <mxGeometry x="500" y="310" width="80" height="80" as="geometry" />
        </mxCell>
        <mxCell id="ORuBii73bYDcg85vZSF9-13" value="" style="endArrow=classic;html=1;labelBackgroundColor=#3B3BFF;fontColor=#4A6EFF;" edge="1" parent="1">
          <mxGeometry width="50" height="50" relative="1" as="geometry">
            <mxPoint x="270" y="500" as="sourcePoint" />
            <mxPoint x="270" y="510" as="targetPoint" />
            <Array as="points">
              <mxPoint x="270" y="420" />
            </Array>
          </mxGeometry>
        </mxCell>
        <mxCell id="ORuBii73bYDcg85vZSF9-14" value="clientes&amp;nbsp;" style="rounded=1;whiteSpace=wrap;html=1;fontColor=#4A6EFF;" vertex="1" parent="1">
          <mxGeometry x="210" y="510" width="120" height="40" as="geometry" />
        </mxCell>
        <mxCell id="ORuBii73bYDcg85vZSF9-18" value="funcionarios&amp;nbsp;" style="rounded=1;whiteSpace=wrap;html=1;fontColor=#4A6EFF;" vertex="1" parent="1">
          <mxGeometry x="490" y="450" width="120" height="30" as="geometry" />
        </mxCell>
        <mxCell id="ORuBii73bYDcg85vZSF9-19" value="" style="endArrow=classic;html=1;labelBackgroundColor=#3B3BFF;fontColor=#4A6EFF;" edge="1" parent="1">
          <mxGeometry width="50" height="50" relative="1" as="geometry">
            <mxPoint x="539.5" y="440" as="sourcePoint" />
            <mxPoint x="539.5" y="450" as="targetPoint" />
            <Array as="points">
              <mxPoint x="539.5" y="390" />
              <mxPoint x="539.5" y="440" />
            </Array>
          </mxGeometry>
        </mxCell>
        <mxCell id="ORuBii73bYDcg85vZSF9-20" value="" style="endArrow=classic;html=1;labelBackgroundColor=#3B3BFF;fontColor=#4A6EFF;" edge="1" parent="1">
          <mxGeometry width="50" height="50" relative="1" as="geometry">
            <mxPoint x="540" y="490" as="sourcePoint" />
            <mxPoint x="540" y="530" as="targetPoint" />
            <Array as="points">
              <mxPoint x="540" y="480" />
            </Array>
          </mxGeometry>
        </mxCell>
        <mxCell id="ORuBii73bYDcg85vZSF9-21" value="20 (atendentes)" style="ellipse;whiteSpace=wrap;html=1;fontColor=#4A6EFF;" vertex="1" parent="1">
          <mxGeometry x="473" y="530" width="120" height="50" as="geometry" />
        </mxCell>
        <mxCell id="ORuBii73bYDcg85vZSF9-22" value="" style="endArrow=classic;html=1;labelBackgroundColor=#3B3BFF;fontColor=#4A6EFF;" edge="1" parent="1">
          <mxGeometry width="50" height="50" relative="1" as="geometry">
            <mxPoint x="330" y="550" as="sourcePoint" />
            <mxPoint x="473" y="550" as="targetPoint" />
          </mxGeometry>
        </mxCell>
        <mxCell id="ORuBii73bYDcg85vZSF9-23" style="edgeStyle=orthogonalEdgeStyle;rounded=0;orthogonalLoop=1;jettySize=auto;html=1;exitX=0.5;exitY=1;exitDx=0;exitDy=0;labelBackgroundColor=#3B3BFF;fontColor=#4A6EFF;" edge="1" parent="1" source="ORuBii73bYDcg85vZSF9-21" target="ORuBii73bYDcg85vZSF9-21">
          <mxGeometry relative="1" as="geometry" />
        </mxCell>
        <mxCell id="ORuBii73bYDcg85vZSF9-24" value="" style="endArrow=classic;html=1;labelBackgroundColor=#3B3BFF;fontColor=#4A6EFF;" edge="1" parent="1">
          <mxGeometry width="50" height="50" relative="1" as="geometry">
            <mxPoint x="390" y="570" as="sourcePoint" />
            <mxPoint x="390" y="610" as="targetPoint" />
            <Array as="points">
              <mxPoint x="390" y="550" />
            </Array>
          </mxGeometry>
        </mxCell>
        <mxCell id="ORuBii73bYDcg85vZSF9-26" value="resolucao do problema" style="rounded=1;whiteSpace=wrap;html=1;fontColor=#4A6EFF;" vertex="1" parent="1">
          <mxGeometry x="330" y="610" width="120" height="60" as="geometry" />
        </mxCell>
        <mxCell id="ORuBii73bYDcg85vZSF9-28" value="" style="endArrow=classic;html=1;labelBackgroundColor=#3B3BFF;fontColor=#4A6EFF;exitX=0.5;exitY=1;exitDx=0;exitDy=0;" edge="1" parent="1" source="ORuBii73bYDcg85vZSF9-26">
          <mxGeometry width="50" height="50" relative="1" as="geometry">
            <mxPoint x="390" y="880" as="sourcePoint" />
            <mxPoint x="390" y="750" as="targetPoint" />
          </mxGeometry>
        </mxCell>
        <mxCell id="ORuBii73bYDcg85vZSF9-30" value="entrada&lt;br&gt;atendentes organizar ordenes dos clientes" style="ellipse;whiteSpace=wrap;html=1;fontColor=#4A6EFF;" vertex="1" parent="1">
          <mxGeometry x="270" y="750" width="260" height="80" as="geometry" />
        </mxCell>
        <mxCell id="ORuBii73bYDcg85vZSF9-31" value="" style="endArrow=classic;html=1;labelBackgroundColor=#3B3BFF;fontColor=#4A6EFF;entryX=0.47;entryY=0;entryDx=0;entryDy=0;entryPerimeter=0;" edge="1" parent="1" source="ORuBii73bYDcg85vZSF9-30" target="ORuBii73bYDcg85vZSF9-32">
          <mxGeometry width="50" height="50" relative="1" as="geometry">
            <mxPoint x="390" y="860" as="sourcePoint" />
            <mxPoint x="400" y="880" as="targetPoint" />
            <Array as="points" />
          </mxGeometry>
        </mxCell>
        <mxCell id="ORuBii73bYDcg85vZSF9-32" value="proceso&amp;nbsp;&lt;br&gt;sistema digital do recepcao de pedidos recivido pelo o lider dos atendentes&amp;nbsp;" style="ellipse;whiteSpace=wrap;html=1;fontColor=#4A6EFF;" vertex="1" parent="1">
          <mxGeometry x="194" y="890" width="440" height="70" as="geometry" />
        </mxCell>
        <mxCell id="ORuBii73bYDcg85vZSF9-33" value="sistema botar automaticamente espera de 15 minutos de espera do pedido pelo cliente&amp;nbsp;" style="shape=parallelogram;perimeter=parallelogramPerimeter;whiteSpace=wrap;html=1;fixedSize=1;fontColor=#4A6EFF;" vertex="1" parent="1">
          <mxGeometry x="270" y="1000" width="280" height="40" as="geometry" />
        </mxCell>
        <mxCell id="ORuBii73bYDcg85vZSF9-34" value="" style="endArrow=classic;html=1;labelBackgroundColor=#3B3BFF;fontColor=#4A6EFF;exitX=0.466;exitY=1;exitDx=0;exitDy=0;exitPerimeter=0;" edge="1" parent="1" source="ORuBii73bYDcg85vZSF9-32">
          <mxGeometry width="50" height="50" relative="1" as="geometry">
            <mxPoint x="414" y="980" as="sourcePoint" />
            <mxPoint x="400" y="1000" as="targetPoint" />
          </mxGeometry>
        </mxCell>
        <mxCell id="ORuBii73bYDcg85vZSF9-35" value="" style="endArrow=classic;html=1;labelBackgroundColor=#3B3BFF;fontColor=#4A6EFF;" edge="1" parent="1">
          <mxGeometry width="50" height="50" relative="1" as="geometry">
            <mxPoint x="399.5" y="1040" as="sourcePoint" />
            <mxPoint x="400" y="1080" as="targetPoint" />
          </mxGeometry>
        </mxCell>
        <mxCell id="ORuBii73bYDcg85vZSF9-39" value="FIN" style="ellipse;whiteSpace=wrap;html=1;fontColor=#4F72FF;" vertex="1" parent="1">
          <mxGeometry x="350" y="1230" width="120" height="80" as="geometry" />
        </mxCell>
        <mxCell id="ORuBii73bYDcg85vZSF9-40" value="para complementar espera aperitivo&amp;nbsp;" style="ellipse;whiteSpace=wrap;html=1;fontColor=#4F72FF;" vertex="1" parent="1">
          <mxGeometry x="260" y="1080" width="270" height="70" as="geometry" />
        </mxCell>
        <mxCell id="ORuBii73bYDcg85vZSF9-41" value="" style="endArrow=classic;html=1;labelBackgroundColor=#3B3BFF;fontColor=#4F72FF;" edge="1" parent="1">
          <mxGeometry width="50" height="50" relative="1" as="geometry">
            <mxPoint x="399.5" y="1156" as="sourcePoint" />
            <mxPoint x="399.5" y="1241" as="targetPoint" />
            <Array as="points">
              <mxPoint x="399.5" y="1176" />
            </Array>
          </mxGeometry>
        </mxCell>
      </root>
    </mxGraphModel>
  </diagram>
</mxfile>
